<?xml version="1.0" encoding="iso-8859-1"?>
<!-- Uploaded to: SVG Repo, www.svgrepo.com, Generator: SVG Repo Mixer Tools -->
<svg height="800px" width="800px" version="1.1" id="Layer_1" xmlns="http://www.w3.org/2000/svg" xmlns:xlink="http://www.w3.org/1999/xlink" 
	 viewBox="0 0 512 512" xml:space="preserve">
<circle style="fill:#FC6F58;" cx="256" cy="256" r="256"/>
<path style="fill:#F1543F;" d="M512,256c0-12.743-0.945-25.266-2.743-37.509l-91.02-90.34l-60.506,37.076l-69.692-68.439
	l-30.889,18.427l1.15,0.574l-34.466,44.449l55.842,56.801l-74.243,18.273l-64.652,55.655l22.076,23.018
	c-36.269,30.111-64.322,53.424-64.703,53.805l143.824,143.824C246.62,511.864,251.294,512,256,512C397.384,512,512,397.384,512,256z
	"/>
<path style="fill:#E6F3FF;" d="M410.524,124.983h-83.649c-6.06,0-10.971,4.911-10.971,10.971v4.113l-15.082,15.084h15.084v19.197
	c0,6.06,4.911,10.971,10.971,10.971h83.649c6.06,0,10.971-4.911,10.971-10.971v-38.395
	C421.495,129.895,416.584,124.983,410.524,124.983z"/>
<circle style="fill:#FFD15D;" cx="256" cy="128.586" r="45.132"/>
<path style="fill:#F9B54C;" d="M256,83.444c-0.193,0-0.383,0.012-0.574,0.014v90.241c0.191,0.002,0.381,0.014,0.574,0.014
	c24.928,0,45.135-20.208,45.135-45.135S280.928,83.444,256,83.444z"/>
<path style="fill:#324A5E;" d="M162.909,271.036c0-51.412,41.679-93.091,93.091-93.091s93.091,41.679,93.091,93.091H162.909z"/>
<path style="fill:#2B3B4E;" d="M256,177.945c-0.193,0-0.381,0.014-0.574,0.014v93.077h93.665
	C349.091,219.624,307.412,177.945,256,177.945z"/>
<circle style="fill:#FFD15D;" cx="162.909" cy="268.705" r="31.396"/>
<path style="fill:#F4E3C3;" d="M98.156,367.79c0-35.762,28.991-64.755,64.755-64.755s64.755,28.991,64.755,64.755H98.156z"/>
<circle style="fill:#FFD15D;" cx="349.194" cy="268.705" r="31.396"/>
<path style="fill:#F4E3C3;" d="M284.444,367.79c0-35.762,28.991-64.755,64.755-64.755s64.755,28.991,64.755,64.755H284.444z"/>
</svg>