<?xml version="1.0" encoding="utf-8"?>
<!-- Uploaded to: SVG Repo, www.svgrepo.com, Generator: SVG Repo Mixer Tools -->
<svg width="800px" height="800px" viewBox="0 0 1024 1024" class="icon"  version="1.1" xmlns="http://www.w3.org/2000/svg"><path d="M338.3 276.4h173.8v481.4H338.3z" fill="#96C96C" /><path d="M385.1 323.1h80.2v214h-80.2z" fill="#FFFFFF" /><path d="M425.2 664.1m-20.7 0a20.7 20.7 0 1 0 41.4 0 20.7 20.7 0 1 0-41.4 0Z" fill="#FFFFFF" /><path d="M512.1 276.4h173.8v481.4H512.1z" fill="#FAE274" /><path d="M558.9 323.1h80.2v214h-80.2z" fill="#FFFFFF" /><path d="M599 664.1m-20.7 0a20.7 20.7 0 1 0 41.4 0 20.7 20.7 0 1 0-41.4 0Z" fill="#FFFFFF" /><path d="M465.3 316.5h-80.2c-3.7 0-6.7 3-6.7 6.7v214c0 3.7 3 6.7 6.7 6.7h80.2c3.7 0 6.7-3 6.7-6.7v-214c0-3.7-3-6.7-6.7-6.7z m-6.7 213.9h-66.9V329.8h66.9v200.6zM425.2 637.4c-14.7 0-26.7 12-26.7 26.7s12 26.7 26.7 26.7 26.7-12 26.7-26.7-12-26.7-26.7-26.7z m0 41.4c-8.1 0-14.6-6.6-14.6-14.6 0-8.1 6.6-14.6 14.6-14.6 8.1 0 14.6 6.6 14.6 14.6s-6.5 14.6-14.6 14.6z" fill="#211F1E" /><path d="M411.9 369.9h26.8a6.7 6.7 0 0 0 0-13.4h-26.8a6.7 6.7 0 0 0 0 13.4zM411.9 396.6h26.8a6.7 6.7 0 0 0 0-13.4h-26.8a6.7 6.7 0 0 0 0 13.4z" fill="#211F1E" /><path d="M686 263H338.3c-7.4 0-13.4 6-13.4 13.4v481.4c0 7.4 6 13.4 13.4 13.4H686c7.4 0 13.4-6 13.4-13.4V276.4c-0.1-7.4-6-13.4-13.4-13.4z m-334.4 26.7h147.1v454.7H351.6V289.7z m321 454.7H525.5V289.7h147.1v454.7z" fill="#211F1E" /><path d="M558.9 543.8h80.2c3.7 0 6.7-3 6.7-6.7v-214c0-3.7-3-6.7-6.7-6.7h-80.2c-3.7 0-6.7 3-6.7 6.7v214c0 3.7 3 6.7 6.7 6.7z m6.7-214h66.9v200.6h-66.9V329.8zM599 637.4c-14.7 0-26.7 12-26.7 26.7s12 26.7 26.7 26.7 26.7-12 26.7-26.7c0.1-14.7-11.9-26.7-26.7-26.7z m0 41.4c-8.1 0-14.6-6.6-14.6-14.6 0-8.1 6.6-14.6 14.6-14.6 8.1 0 14.6 6.6 14.6 14.6 0.1 8-6.5 14.6-14.6 14.6z" fill="#211F1E" /><path d="M612.5 356.5h-26.8a6.7 6.7 0 0 0 0 13.4h26.8a6.7 6.7 0 0 0 0-13.4zM612.5 383.3h-26.8a6.7 6.7 0 0 0 0 13.4h26.8c3.7 0 6.7-3 6.7-6.7 0-3.8-3-6.7-6.7-6.7z" fill="#211F1E" /></svg>