<?xml version="1.0" encoding="utf-8"?>
<!-- Uploaded to: SVG Repo, www.svgrepo.com, Generator: SVG Repo Mixer Tools -->
<svg width="800px" height="800px" viewBox="0 0 1024 1024" class="icon"  version="1.1" xmlns="http://www.w3.org/2000/svg"><path d="M655.5 279.8c-19 0-34.4 15.4-34.4 34.4v52.5l-362.3 0.3v-52.5c0-19 15.4-34.4 34.4-34.4l1.8-0.3h360.5z" fill="#CDE9E3" /><path d="M365.7 758.2c-19 0-34.4-15.4-34.4-34.4V314.3c0-19-15.4-34.4-34.4-34.4h362.3c19 0 34.4 15.4 34.4 34.4v357" fill="#CDE9E3" /><path d="M369.3 758.2c19 0 34.4-15.4 34.4-34.4v-52.5H766v52.5c0 19-15.4 34.4-34.4 34.4H369.3z" fill="#CDE9E3" /><path d="M613.9 366.8H411c-4 0-7.2 3.2-7.2 7.2s3.2 7.2 7.2 7.2h202.9c4 0 7.2-3.2 7.2-7.2s-3.2-7.2-7.2-7.2zM613.9 410.3H411c-4 0-7.2 3.2-7.2 7.2s3.2 7.2 7.2 7.2h202.9c4 0 7.2-3.2 7.2-7.2s-3.2-7.2-7.2-7.2zM613.9 453.8H411c-4 0-7.2 3.2-7.2 7.2s3.2 7.2 7.2 7.2h202.9c4 0 7.2-3.2 7.2-7.2s-3.2-7.2-7.2-7.2zM613.9 497.2H411c-4 0-7.2 3.2-7.2 7.2s3.2 7.2 7.2 7.2h202.9c4 0 7.2-3.2 7.2-7.2 0-3.9-3.2-7.2-7.2-7.2zM613.9 540.7H411c-4 0-7.2 3.2-7.2 7.2s3.2 7.2 7.2 7.2h202.9c4 0 7.2-3.2 7.2-7.2 0-3.9-3.2-7.2-7.2-7.2zM613.9 584.2H411c-4 0-7.2 3.2-7.2 7.2s3.2 7.2 7.2 7.2h202.9c4 0 7.2-3.2 7.2-7.2s-3.2-7.2-7.2-7.2z" fill="#211F1E" /><path d="M766 656.7h-58V314.3c0-27-21.9-48.9-48.9-48.9H291.6c-26.4 0.7-47.4 22.7-47.4 49.2v52.5c0 3.8 1.5 7.5 4.2 10.3 2.7 2.7 6.4 4.2 10.2 4.2h58v342.2c0 27 21.9 48.9 48.9 48.9 0.6 0 1.2-0.1 1.8-0.2 0.6 0.1 1.2 0.2 1.8 0.2h362.4c27 0 48.9-21.9 48.9-48.9v-52.5c0.1-8.1-6.3-14.6-14.4-14.6zM273.3 352.6v-38c0-21.8 22.9-20.2 22.9-20.2h0.7c11 0 19.9 8.9 19.9 19.9v38.3h-43.5z m115.9 318.6v52.5c0 11-8.9 19.9-19.9 19.9-0.6 0-1.2 0.1-1.8 0.2-0.6-0.1-1.2-0.2-1.8-0.2-11 0-19.9-8.9-19.9-19.9V314.3c0-7.1-1.5-13.8-4.2-19.9h317.6c11 0 19.9 8.9 19.9 19.9v342.5H403.7c-8-0.1-14.5 6.4-14.5 14.4z m362.3 52.6c0 11-8.9 19.9-19.9 19.9H413.9c2.7-6.1 4.2-12.8 4.2-19.9v-38h333.4v38z" fill="#211F1E" /></svg>